<svg xmlns="http://www.w3.org/2000/svg" xmlns:xlink="http://www.w3.org/1999/xlink" width="360" height="360" viewBox="0 0 360 360" fill="none"><rect x="0" y="0" width="0" height="0" fill="rgba(249, 249, 249, 1)" /><defs><rect id="path_0" x="0" y="0" width="360" height="360" /><filter id="filter_2" x="16" y="16" width="328" height="328" filterUnits="userSpaceOnUse" color-interpolation-filters="sRGB"><feFlood flood-opacity="0" result="BackgroundImageFix"/>
          <feColorMatrix in="SourceAlpha" type="matrix" values="0 0 0 0 0 0 0 0 0 0 0 0 0 0 0 0 0 0 127 0"/>
          <feOffset dx="2" dy="2"/>
          <feGaussianBlur stdDeviation="2"/>
          <feColorMatrix type="matrix" values="0 0 0 0 0 0 0 0 0 0 0 0 0 0 0 0 0 0 0.5 0"/>
          <feBlend mode="normal" in2="BackgroundImageFix" result="effect1_Shadow"/>
          <feBlend mode="normal" in="SourceGraphic" in2="effect1_Shadow" result="shape"/></filter><filter id="filter_4" x="51" y="32" width="258" height="248" filterUnits="userSpaceOnUse" color-interpolation-filters="sRGB"><feFlood flood-opacity="0" result="BackgroundImageFix"/>
          <feColorMatrix in="SourceAlpha" type="matrix" values="0 0 0 0 0 0 0 0 0 0 0 0 0 0 0 0 0 0 127 0"/>
          <feOffset dx="0" dy="2"/>
          <feGaussianBlur stdDeviation="2"/>
          <feColorMatrix type="matrix" values="0 0 0 0 0 0 0 0 0 0 0 0 0 0 0 0 0 0 0.5 0"/>
          <feBlend mode="normal" in2="BackgroundImageFix" result="effect1_Shadow"/>
          <feBlend mode="normal" in="SourceGraphic" in2="effect1_Shadow" result="shape"/></filter></defs><g opacity="1" transform="translate(0 0)  rotate(0 180 180)"><rect fill="#FFFFFF" opacity="1" transform="translate(0 0)  rotate(0 180 180)" x="0" y="0" width="360" height="360" /><mask id="bg-mask" fill="white"><use xlink:href="#path_0"></use></mask><g mask="url(#bg-mask)" ><g id="圆形 1" filter="url(#filter_2)"><path id="圆形 1" fill-rule="evenodd" style="fill:#62B6D8" transform="translate(20 20)  rotate(0 160 160)" opacity="1" d="M160,0C71.63,0 0,71.63 0,160C0,248.37 71.63,320 160,320C248.37,320 320,248.37 320,160C320,71.63 248.37,0 160,0Z " /></g><g id="文本 1" filter="url(#filter_4)"><g opacity="1" transform="translate(55 36)  rotate(0 125 120)"><text><tspan x="42.756" y="110.5" font-size="144" line-height="120" fill="#E5E5E5" opacity="1" font-family="YouSheBiaoTiHei" letter-spacing="0"  >T</tspan><tspan x="145.572" y="110.5" font-size="96" line-height="120" fill="#E5E5E5" opacity="1" font-family="YouSheBiaoTiHei" letter-spacing="0"  >u</tspan><tspan x="0" y="230.5" font-size="144" line-height="120" fill="#E5E5E5" opacity="1" font-family="YouSheBiaoTiHei" letter-spacing="0"  >N</tspan><tspan x="111.16799999999999" y="230.5" font-size="72" line-height="120" fill="#E5E5E5" opacity="1" font-family="YouSheBiaoTiHei" letter-spacing="0" >ong</tspan></text></g></g></g></g></svg>